<svg width="33" height="25" viewBox="0 0 33 25" fill="none" xmlns="http://www.w3.org/2000/svg">
<g id="Group">
<path id="Vector" fill-rule="evenodd" clip-rule="evenodd" d="M1 20.1192V8.69063C1 7.68028 1.40136 6.71131 2.11578 5.99689C2.83021 5.28246 3.79918 4.8811 4.80952 4.8811H27.6667C28.677 4.8811 29.646 5.28246 30.3604 5.99689C31.0748 6.71131 31.4762 7.68028 31.4762 8.69063V20.1192C31.4762 21.1295 31.0748 22.0985 30.3604 22.8129C29.646 23.5274 28.677 23.9287 27.6667 23.9287H4.80952C3.79918 23.9287 2.83021 23.5274 2.11578 22.8129C1.40136 22.0985 1 21.1295 1 20.1192Z" fill="#E4F9F8" stroke="#0E7693" stroke-width="2" stroke-linecap="round" stroke-linejoin="round"/>
<path id="Vector_2" fill-rule="evenodd" clip-rule="evenodd" d="M28.6191 9.64304C28.6191 9.13787 28.4184 8.65339 28.0612 8.29617C27.704 7.93896 27.2195 7.73828 26.7143 7.73828C26.2092 7.73828 25.7247 7.93896 25.3675 8.29617C25.0103 8.65339 24.8096 9.13787 24.8096 9.64304C24.8096 10.1482 25.0103 10.6327 25.3675 10.9899C25.7247 11.3471 26.2092 11.5478 26.7143 11.5478C27.2195 11.5478 27.704 11.3471 28.0612 10.9899C28.4184 10.6327 28.6191 10.1482 28.6191 9.64304Z" fill="#E4F9F8"/>
<path id="Vector_3" fill-rule="evenodd" clip-rule="evenodd" d="M21.9524 14.4049C21.9524 12.8893 21.3503 11.4359 20.2787 10.3643C19.2071 9.29262 17.7536 8.69058 16.2381 8.69058C14.7226 8.69058 13.2691 9.29262 12.1975 10.3643C11.1258 11.4359 10.5238 12.8893 10.5238 14.4049C10.5238 15.9204 11.1258 17.3738 12.1975 18.4455C13.2691 19.5171 14.7226 20.1192 16.2381 20.1192C17.7536 20.1192 19.2071 19.5171 20.2787 18.4455C21.3503 17.3738 21.9524 15.9204 21.9524 14.4049ZM14.3333 1.07153H18.1429C18.648 1.07153 19.1325 1.27221 19.4897 1.62943C19.8469 1.98664 20.0476 2.47112 20.0476 2.9763V4.88106H12.4286V2.9763C12.4286 2.47112 12.6292 1.98664 12.9865 1.62943C13.3437 1.27221 13.8282 1.07153 14.3333 1.07153Z" fill="#E4F9F8" stroke="#0E7693" stroke-width="2" stroke-linecap="round" stroke-linejoin="round"/>
</g>
</svg>
