<svg width="27" height="31" viewBox="0 0 27 31" fill="none" xmlns="http://www.w3.org/2000/svg">
<path id="Vector" fill-rule="evenodd" clip-rule="evenodd" d="M13.4762 0.5C11.6045 0.5 9.80954 1.1983 8.48607 2.44127C7.16261 3.68424 6.4191 5.37008 6.4191 7.12791C6.4191 8.88574 7.16261 10.5716 8.48607 11.8145C9.80954 13.0575 11.6045 13.7558 13.4762 13.7558C15.3479 13.7558 17.1429 13.0575 18.4663 11.8145C19.7898 10.5716 20.5333 8.88574 20.5333 7.12791C20.5333 5.37008 19.7898 3.68424 18.4663 2.44127C17.1429 1.1983 15.3479 0.5 13.4762 0.5ZM8.64765 7.12791C8.64765 5.92518 9.15637 4.77172 10.0619 3.92126C10.9674 3.0708 12.1956 2.59302 13.4762 2.59302C14.7568 2.59302 15.985 3.0708 16.8905 3.92126C17.796 4.77172 18.3047 5.92518 18.3047 7.12791C18.3047 8.33063 17.796 9.4841 16.8905 10.3346C15.985 11.185 14.7568 11.6628 13.4762 11.6628C12.1956 11.6628 10.9674 11.185 10.0619 10.3346C9.15637 9.4841 8.64765 8.33063 8.64765 7.12791ZM13.4762 15.8488C10.0398 15.8488 6.87224 16.5828 4.52631 17.8219C2.21455 19.0442 0.476279 20.8944 0.476279 23.1744V23.3167C0.474794 24.9381 0.473308 26.9726 2.37352 28.4265C3.30803 29.1409 4.61694 29.6502 6.38493 29.9851C8.15589 30.3228 10.4662 30.5 13.4762 30.5C16.4862 30.5 18.795 30.3228 20.5689 29.9851C22.3369 29.6502 23.6444 29.1409 24.5804 28.4265C26.4806 26.9726 26.4776 24.9381 26.4761 23.3167V23.1744C26.4761 20.8944 24.7378 19.0442 22.4276 17.8219C20.0802 16.5828 16.9141 15.8488 13.4762 15.8488ZM2.70484 23.1744C2.70484 21.987 3.62894 20.6977 5.6183 19.647C7.57349 18.6144 10.3488 17.9419 13.4777 17.9419C16.6036 17.9419 19.3789 18.6144 21.3341 19.647C23.3249 20.6977 24.2476 21.987 24.2476 23.1744C24.2476 24.9995 24.1881 26.0265 23.1719 26.8023C22.6222 27.2237 21.7011 27.6353 20.1262 27.934C18.5558 28.2326 16.409 28.407 13.4762 28.407C10.5434 28.407 8.39508 28.2326 6.82618 27.934C5.25133 27.6353 4.3302 27.2237 3.78049 26.8037C2.76426 26.0265 2.70484 24.9995 2.70484 23.1744Z" fill="black"/>
</svg>
