<svg width="24" height="25" viewBox="0 0 24 25" fill="none" xmlns="http://www.w3.org/2000/svg">
<path id="Vector" d="M18.9398 17.7693L24 22.8282L22.3282 24.5L17.2693 19.4398C15.3869 20.9488 13.0456 21.7696 10.6331 21.7661C4.76361 21.7661 0 17.0025 0 11.1331C0 5.26361 4.76361 0.5 10.6331 0.5C16.5025 0.5 21.2661 5.26361 21.2661 11.1331C21.2696 13.5456 20.4488 15.8869 18.9398 17.7693ZM16.5699 16.8926C18.0693 15.3507 18.9066 13.2838 18.9032 11.1331C18.9032 6.56321 15.2017 2.8629 10.6331 2.8629C6.06321 2.8629 2.3629 6.56321 2.3629 11.1331C2.3629 15.7017 6.06321 19.4032 10.6331 19.4032C12.7838 19.4066 14.8507 18.5693 16.3926 17.0699L16.5699 16.8926Z" fill="black"/>
</svg>
