<svg width="37" height="39" viewBox="0 0 37 39" fill="none" xmlns="http://www.w3.org/2000/svg">
<g id="solar:cart-large-minimalistic-outline">
<path id="Vector" fill-rule="evenodd" clip-rule="evenodd" d="M3.9106 4.13153C3.6175 4.02316 3.29546 4.04163 3.01532 4.18289C2.73519 4.32414 2.5199 4.5766 2.41682 4.88474C2.31374 5.19287 2.33131 5.53143 2.46567 5.82594C2.60003 6.12045 2.84017 6.34679 3.13327 6.45516L3.54222 6.60449C4.58334 6.99012 5.26857 7.24447 5.77274 7.50539C6.2457 7.74989 6.45486 7.94845 6.59222 8.1585C6.7327 8.37511 6.84196 8.67377 6.90439 9.26944C6.96683 9.89302 6.96839 10.7053 6.96839 11.9196V16.3864C6.96839 18.7707 6.99024 20.4888 7.20409 21.8016C7.43198 23.203 7.88776 24.2073 8.74157 25.1525C9.66874 26.1814 10.8425 26.6294 12.2427 26.8362C13.5819 27.0364 15.2833 27.0364 17.3827 27.0364H25.8209C26.9791 27.0364 27.9531 27.0364 28.7398 26.9346C29.578 26.828 30.3397 26.5917 31.0062 26.0222C31.6711 25.4512 32.0442 24.7144 32.3127 23.8742C32.5671 23.0832 32.7638 22.0806 32.9979 20.8876L33.7908 16.836L33.7939 16.8278L33.8096 16.7425C34.0671 15.3887 34.2825 14.2498 34.3371 13.3342C34.3933 12.3725 34.2888 11.4241 33.6925 10.6101C33.3257 10.108 32.8106 9.8241 32.3408 9.65179C31.8332 9.47632 31.3086 9.36074 30.7767 9.30719C29.7028 9.18247 28.4011 9.18247 27.1242 9.18247H9.24574C9.24105 9.12335 9.23585 9.06427 9.23013 9.00524C9.14584 8.18968 8.96478 7.44631 8.52304 6.77023C8.07975 6.08758 7.48973 5.65108 6.80294 5.29498C6.15985 4.9635 5.34194 4.66156 4.37886 4.30547L3.90903 4.13153H3.9106ZM9.3113 11.6439H27.0743C28.4104 11.6439 29.5873 11.6456 30.5161 11.7539C30.9781 11.8097 31.3231 11.8852 31.565 11.9738C31.6637 12.0035 31.7567 12.0513 31.8397 12.1149C31.9365 12.2495 32.0395 12.4923 31.9989 13.1832C31.9568 13.9118 31.7757 14.8832 31.4979 16.3437V16.347L30.7174 20.3182C30.4677 21.6031 30.296 22.4564 30.0946 23.0882C29.9026 23.6888 29.7216 23.9464 29.5265 24.1138C29.3313 24.2812 29.0535 24.4157 28.4572 24.4912C27.8266 24.5732 26.9978 24.5749 25.7507 24.5749H17.4732C15.2614 24.5749 13.7271 24.5716 12.572 24.3993C11.4544 24.2336 10.8659 23.9316 10.4398 23.459C9.94034 22.9044 9.6703 22.3628 9.51109 21.3865C9.33939 20.3198 9.30974 18.8298 9.30974 16.3864L9.3113 11.6439ZM12.1069 36.0618C11.1754 36.0618 10.2821 35.6728 9.62349 34.9803C8.96486 34.2879 8.59484 33.3488 8.59484 32.3696C8.59484 31.3903 8.96486 30.4512 9.62349 29.7588C10.2821 29.0663 11.1754 28.6773 12.1069 28.6773C13.0383 28.6773 13.9316 29.0663 14.5902 29.7588C15.2489 30.4512 15.6189 31.3903 15.6189 32.3696C15.6189 33.3488 15.2489 34.2879 14.5902 34.9803C13.9316 35.6728 13.0383 36.0618 12.1069 36.0618ZM10.9362 32.3696C10.9362 32.696 11.0595 33.009 11.2791 33.2398C11.4986 33.4706 11.7964 33.6003 12.1069 33.6003C12.4173 33.6003 12.7151 33.4706 12.9347 33.2398C13.1542 33.009 13.2775 32.696 13.2775 32.3696C13.2775 32.0431 13.1542 31.7301 12.9347 31.4993C12.7151 31.2685 12.4173 31.1388 12.1069 31.1388C11.7964 31.1388 11.4986 31.2685 11.2791 31.4993C11.0595 31.7301 10.9362 32.0431 10.9362 32.3696ZM26.1549 36.0618C25.2235 36.0618 24.3302 35.6728 23.6716 34.9803C23.0129 34.2879 22.6429 33.3488 22.6429 32.3696C22.6429 31.3903 23.0129 30.4512 23.6716 29.7588C24.3302 29.0663 25.2235 28.6773 26.1549 28.6773C27.0864 28.6773 27.9797 29.0663 28.6383 29.7588C29.2969 30.4512 29.6669 31.3903 29.6669 32.3696C29.6669 33.3488 29.2969 34.2879 28.6383 34.9803C27.9797 35.6728 27.0864 36.0618 26.1549 36.0618ZM24.9843 32.3696C24.9843 32.696 25.1076 33.009 25.3271 33.2398C25.5467 33.4706 25.8444 33.6003 26.1549 33.6003C26.4654 33.6003 26.7632 33.4706 26.9827 33.2398C27.2023 33.009 27.3256 32.696 27.3256 32.3696C27.3256 32.0431 27.2023 31.7301 26.9827 31.4993C26.7632 31.2685 26.4654 31.1388 26.1549 31.1388C25.8444 31.1388 25.5467 31.2685 25.3271 31.4993C25.1076 31.7301 24.9843 32.0431 24.9843 32.3696Z" fill="black"/>
</g>
</svg>
